{
  "accessors": [
    {
      "bufferView": 2,
      "componentType": 5126,
      "count": 402,
      "max": [
        4.999999523162842,
        2.843310832977295,
        2.8433310985565186
      ],
      "min": [
        -5.000000476837158,
        -2.843310832977295,
        -2.8432905673980713
      ],
      "type": "VEC3"
    },
    {
      "bufferView": 2,
      "byteOffset": 4824,
      "componentType": 5126,
      "count": 402,
      "max": [
        1.0,
        1.0,
        1.0
      ],
      "min": [
        -1.0,
        -1.0,
        -1.0
      ],
      "type": "VEC3"
    },
    {
      "bufferView": 3,
      "componentType": 5126,
      "count": 402,
      "max": [
        0.7803046107292175,
        0.9997591972351074,
        0.9999961256980896,
        1.0
      ],
      "min": [
        -0.9989635944366455,
        -0.9985761046409607,
        -0.9999994039535522,
        1.0
      ],
      "type": "VEC4"
    },
    {
      "bufferView": 1,
      "componentType": 5126,
      "count": 402,
      "max": [
        0.993945300579071,
        0.9958984851837158
      ],
      "min": [
        0.0041015492752194405,
        0.004101570695638657
      ],
      "type": "VEC2"
    },
    {
      "bufferView": 1,
      "byteOffset": 3216,
      "componentType": 5126,
      "count": 402,
      "max": [
        0.993945300579071,
        0.9958984851837158
      ],
      "min": [
        0.0041015492752194405,
        0.004101570695638657
      ],
      "type": "VEC2"
    },
    {
      "bufferView": 1,
      "byteOffset": 6432,
      "componentType": 5126,
      "count": 402,
      "max": [
        0.993945300579071,
        0.9958984851837158
      ],
      "min": [
        0.0041015492752194405,
        0.004101570695638657
      ],
      "type": "VEC2"
    },
    {
      "bufferView": 0,
      "componentType": 5125,
      "count": 1632,
      "type": "SCALAR"
    }
  ],
  "asset": {
    "extras": {
      "author": "AJVFX (https://sketchfab.com/ajvisualeffects)",
      "license": "CC-BY-4.0 (http://creativecommons.org/licenses/by/4.0/)",
      "source": "https://sketchfab.com/3d-models/little-gym-stuff-dumbbell-17f0629f7a714cfc8821e45ecbf5d273",
      "title": "Little Gym Stuff - Dumbbell"
    },
    "generator": "Sketchfab-15.30.0",
    "version": "2.0"
  },
  "bufferViews": [
    {
      "buffer": 0,
      "byteLength": 6528,
      "name": "floatBufferViews",
      "target": 34963
    },
    {
      "buffer": 0,
      "byteLength": 9648,
      "byteOffset": 6528,
      "byteStride": 8,
      "name": "floatBufferViews",
      "target": 34962
    },
    {
      "buffer": 0,
      "byteLength": 9648,
      "byteOffset": 16176,
      "byteStride": 12,
      "name": "floatBufferViews",
      "target": 34962
    },
    {
      "buffer": 0,
      "byteLength": 6432,
      "byteOffset": 25824,
      "byteStride": 16,
      "name": "floatBufferViews",
      "target": 34962
    }
  ],
  "buffers": [
    {
      "byteLength": 32256,
      "uri": "scene.bin"
    }
  ],
  "images": [
    {
      "uri": "textures/Little_Dumbbell_baseColor.png"
    },
    {
      "uri": "textures/Little_Dumbbell_metallicRoughness.png"
    },
    {
      "uri": "textures/Little_Dumbbell_normal.png"
    }
  ],
  "materials": [
    {
      "doubleSided": true,
      "name": "Little_Dumbbell",
      "normalTexture": {
        "index": 2
      },
      "pbrMetallicRoughness": {
        "baseColorTexture": {
          "index": 0
        },
        "metallicFactor": 0.0,
        "metallicRoughnessTexture": {
          "index": 1
        },
        "roughnessFactor": 0.5
      }
    }
  ],
  "meshes": [
    {
      "name": "Little_Dumbbell_Little_Dumbbell_0",
      "primitives": [
        {
          "attributes": {
            "NORMAL": 1,
            "POSITION": 0,
            "TANGENT": 2,
            "TEXCOORD_0": 3,
            "TEXCOORD_1": 4,
            "TEXCOORD_2": 5
          },
          "indices": 6,
          "material": 0,
          "mode": 4
        }
      ]
    }
  ],
  "nodes": [
    {
      "children": [
        1
      ],
      "matrix": [
        0.8186731934547424,
        1.275112810884783e-16,
        -0.5742597579956055,
        0.0,
        -0.5742597579956055,
        1.81781965803372e-16,
        -0.8186731934547424,
        0.0,
        0.0,
        1.0,
        2.220446049250313e-16,
        0.0,
        0.0,
        0.0,
        0.0,
        1.0
      ],
      "name": "Sketchfab_model"
    },
    {
      "children": [
        2
      ],
      "matrix": [
        0.009999999776482582,
        0.0,
        0.0,
        0.0,
        0.0,
        0.0,
        0.009999999776482582,
        0.0,
        0.0,
        -0.009999999776482582,
        0.0,
        0.0,
        0.0,
        0.0,
        0.0,
        1.0
      ],
      "name": "Little_Dumbbell.fbx"
    },
    {
      "children": [
        3
      ],
      "name": "RootNode"
    },
    {
      "children": [
        4
      ],
      "matrix": [
        100.0,
        0.0,
        0.0,
        0.0,
        0.0,
        -1.629206793918314e-05,
        -99.99999999999868,
        0.0,
        0.0,
        99.99999999999868,
        -1.629206793918314e-05,
        0.0,
        0.0,
        0.0,
        0.0,
        1.0
      ],
      "name": "Little_Dumbbell"
    },
    {
      "mesh": 0,
      "name": "Little_Dumbbell_Little_Dumbbell_0"
    }
  ],
  "samplers": [
    {
      "magFilter": 9729,
      "minFilter": 9987,
      "wrapS": 10497,
      "wrapT": 10497
    }
  ],
  "scene": 0,
  "scenes": [
    {
      "name": "Sketchfab_Scene",
      "nodes": [
        0
      ]
    }
  ],
  "textures": [
    {
      "sampler": 0,
      "source": 0
    },
    {
      "sampler": 0,
      "source": 1
    },
    {
      "sampler": 0,
      "source": 2
    }
  ]
}
