<?xml version="1.0" encoding="UTF-8" standalone="no"?>
<!-- Created with Inkscape (http://www.inkscape.org/) -->

<svg
   width="791.30542"
   height="1024"
   id="svg2"
   version="1.1"
   inkscape:version="1.1.2 (0a00cf5339, 2022-02-04)"
   sodipodi:docname="CSS3_and_HTML5_logos_and_wordmarks.svg"
   xmlns:inkscape="http://www.inkscape.org/namespaces/inkscape"
   xmlns:sodipodi="http://sodipodi.sourceforge.net/DTD/sodipodi-0.dtd"
   xmlns="http://www.w3.org/2000/svg"
   xmlns:svg="http://www.w3.org/2000/svg"
   xmlns:rdf="http://www.w3.org/1999/02/22-rdf-syntax-ns#"
   xmlns:cc="http://creativecommons.org/ns#"
   xmlns:dc="http://purl.org/dc/elements/1.1/">
  <defs
     id="defs4">
    <rect
       x="837.76227"
       y="3.8169644"
       width="387.28796"
       height="126.25"
       id="rect5093" />
  </defs>
  <sodipodi:namedview
     id="base"
     pagecolor="#ffffff"
     bordercolor="#666666"
     borderopacity="1.0"
     inkscape:pageopacity="0.0"
     inkscape:pageshadow="2"
     inkscape:zoom="0.35"
     inkscape:cx="351.42858"
     inkscape:cy="598.57144"
     inkscape:document-units="px"
     inkscape:current-layer="text8553"
     showgrid="false"
     fit-margin-top="0"
     fit-margin-left="0"
     fit-margin-right="0"
     fit-margin-bottom="0"
     inkscape:window-width="1920"
     inkscape:window-height="1016"
     inkscape:window-x="0"
     inkscape:window-y="0"
     inkscape:window-maximized="1"
     inkscape:pagecheckerboard="0"
     units="mm"
     width="791.30542px"
     showguides="true"
     inkscape:guide-bbox="true" />
  <metadata
     id="metadata7">
    <rdf:RDF>
      <cc:Work
         rdf:about="">
        <dc:format>image/svg+xml</dc:format>
        <dc:type
           rdf:resource="http://purl.org/dc/dcmitype/StillImage" />
      </cc:Work>
    </rdf:RDF>
  </metadata>
  <g
     inkscape:label="Calque 1"
     inkscape:groupmode="layer"
     id="layer1"
     transform="translate(-170.06157,-270.18109)">
    <g
       id="g3013"
       transform="translate(95.428571,270.18109)">
      <polygon
         id="polygon2989"
         points="74.633,100.62 437.367,100.62 404.321,470.819 255.778,512 107.644,470.877 "
         style="fill:#264de4" />
      <polygon
         id="polygon2991"
         points="256,480.523 376.03,447.246 404.27,130.894 256,130.894 "
         style="fill:#2965f1" />
      <polygon
         id="polygon2993"
         points="256,268.217 150.31,268.217 154.38,313.627 256,313.627 "
         style="fill:#ebebeb" />
      <polygon
         id="polygon2995"
         points="256,221.716 256,176.305 255.843,176.305 142.132,176.305 146.26,221.716 "
         style="fill:#ebebeb" />
      <polygon
         id="polygon2997"
         points="255.791,433.457 256,433.399 256,386.153 255.801,386.206 205.227,372.55 201.994,336.333 177.419,336.333 156.409,336.333 162.771,407.634 "
         style="fill:#ebebeb" />
      <polygon
         id="polygon3005"
         points="255.843,313.627 311.761,313.627 306.49,372.521 255.843,386.191 255.843,433.435 348.937,407.634 349.62,399.962 360.291,280.411 361.399,268.217 369.597,176.305 255.843,176.305 255.843,221.716 319.831,221.716 315.699,268.217 255.843,268.217 "
         style="fill:#ffffff" />
    </g>
    <g
       id="g3054"
       transform="translate(524,270.18109)">
      <polygon
         id="polygon3028"
         points="255.778,512 107.644,470.877 74.633,100.62 437.367,100.62 404.321,470.819 "
         style="fill:#e44d26" />
      <polygon
         id="polygon3028-3"
         points="255.778,512 107.644,470.877 74.633,100.62 437.367,100.62 404.321,470.819 "
         style="fill:#434343;fill-opacity:1"
         transform="matrix(1,0,0,-1,-217.06455,1029.4311)" />
      <polygon
         id="polygon3030"
         points="256,130.894 256,480.523 376.03,447.246 404.27,130.894 "
         style="fill:#f16529" />
      <polygon
         id="polygon3030-6"
         points="256,480.523 376.03,447.246 404.27,130.894 256,130.894 "
         style="fill:#4e4e4e;fill-opacity:1"
         transform="matrix(1,0,0,-1,-210.7308,1026.2208)" />
      <polygon
         id="polygon3032"
         points="256,313.627 256,268.217 195.91,268.217 191.76,221.716 256,221.716 256,176.305 255.843,176.305 142.132,176.305 143.219,188.488 154.38,313.627 "
         style="fill:#ebebeb" />
      <polygon
         id="polygon3034"
         points="255.801,386.206 205.227,372.55 201.994,336.333 177.419,336.333 156.409,336.333 162.771,407.634 255.791,433.457 256,433.399 256,386.153 "
         style="fill:#ebebeb" />
      <polygon
         id="polygon3044"
         points="360.291,280.411 361.399,268.217 349.162,268.217 255.843,268.217 255.843,313.627 311.761,313.627 306.49,372.521 255.843,386.191 255.843,433.435 348.937,407.634 349.62,399.962 "
         style="fill:#ffffff" />
      <polygon
         id="polygon3046"
         points="369.597,176.305 255.843,176.305 255.843,204.509 255.843,221.605 255.843,221.716 365.385,221.716 365.531,221.716 366.442,211.509 368.511,188.488 "
         style="fill:#ffffff" />
      <text
         xml:space="preserve"
         transform="translate(-353.93843)"
         id="text5091"
         style="font-style:normal;font-weight:normal;font-size:40px;line-height:1.25;font-family:sans-serif;white-space:pre;shape-inside:url(#rect5093);fill:#000000;fill-opacity:1;stroke:none" />
      <g
         aria-label="THREE"
         id="text8553"
         style="font-size:85.5398px;line-height:1.25;stroke-width:2.1385"
         transform="matrix(0.97165559,0,0,0.97165559,-584.18417,456.79901)">
        <path
           d="m 536.55118,529.89229 h -19.16091 v 53.12021 h -16.68026 v -53.12021 h -18.9043 v -15.31163 h 54.74547 z"
           style="font-family:'Red October';-inkscape-font-specification:'Red October'"
           id="path45697" />
        <path
           d="m 597.96862,514.6662 v 68.43184 h -15.31163 v -33.70268 h -23.8656 v 33.70268 H 543.47976 V 514.6662 h 15.31163 v 19.41754 h 23.8656 V 514.6662 Z"
           style="font-family:'Red October';-inkscape-font-specification:'Red October'"
           id="path45699" />
        <path
           d="m 663.3209,514.58066 v 43.71084 h -8.98168 l 6.15886,24.721 H 644.4166 l -6.15887,-24.721 h -16.85134 v 24.721 h -15.31162 v -68.43184 z m -15.31163,28.5703 v -13.25867 h -26.60288 v 13.25867 z"
           style="font-family:'Red October';-inkscape-font-specification:'Red October'"
           id="path45701" />
        <path
           d="M 672.73022,583.09804 V 514.6662 h 53.63346 v 15.31163 h -38.32183 v 10.52139 h 29.93893 v 15.31163 h -29.93893 v 11.97557 h 38.32183 v 15.31162 z"
           style="font-family:'Red October';-inkscape-font-specification:'Red October'"
           id="path45703" />
        <path
           d="M 732.69348,583.09804 V 514.6662 h 53.63345 v 15.31163 H 748.0051 v 10.52139 h 29.93893 v 15.31163 H 748.0051 v 11.97557 h 38.32183 v 15.31162 z"
           style="font-family:'Red October';-inkscape-font-specification:'Red October'"
           id="path45705" />
        <g
           transform="matrix(1.5188934,0,0,1.5188934,491.03463,121.9131)"
           fill-rule="evenodd"
           stroke="#ffffff"
           stroke-linecap="butt"
           stroke-linejoin="round"
           stroke-width="4"
           id="g45806"
           style="fill:none;fill-opacity:1;stroke-width:5.92537;stroke-miterlimit:4;stroke-dasharray:none">
          <path
             d="M 63.02,200.61 19.807,25.67 193.037,75.544 Z"
             id="path45794"
             style="fill:none;fill-opacity:1;stroke-width:5.92537;stroke-miterlimit:4;stroke-dasharray:none" />
          <path
             d="m 106.39,50.612 21.591,87.496 -86.567,-24.945 z"
             id="path45796"
             style="fill:none;fill-opacity:1;stroke-width:5.92537;stroke-miterlimit:4;stroke-dasharray:none" />
          <path
             d="M 84.91,125.03 74.186,81.565 117.194,93.911 Z"
             id="path45798"
             style="fill:none;fill-opacity:1;stroke-width:5.92537;stroke-miterlimit:4;stroke-dasharray:none" />
          <path
             d="M 63.458,38.153 74.182,81.618 31.174,69.272 Z"
             id="path45800"
             style="fill:none;fill-opacity:1;stroke-width:5.92537;stroke-miterlimit:4;stroke-dasharray:none" />
          <path
             d="m 149.47,62.93 10.724,43.465 -43.008,-12.346 z"
             id="path45802"
             style="fill:none;fill-opacity:1;stroke-width:5.92537;stroke-miterlimit:4;stroke-dasharray:none" />
          <path
             d="M 84.915,125.06 95.639,168.525 52.631,156.179 Z"
             id="path45804"
             style="fill:none;fill-opacity:1;stroke-width:5.92537;stroke-miterlimit:4;stroke-dasharray:none" />
        </g>
      </g>
      <g
         aria-label="CSS "
         id="text8553-3"
         style="font-size:85.5398px;line-height:1.25;stroke-width:2.1385">
        <path
           d="M -270.02451,68.269195 V -0.16264745 h 53.54792 V 15.148977 h -38.23629 V 52.95757 h 38.23629 v 15.311625 z"
           style="font-family:'Red October';-inkscape-font-specification:'Red October'"
           id="path45708" />
        <path
           d="m -153.77602,68.183655 h -54.57439 V 52.95757 h 39.43384 V 41.324157 h -39.43384 V -0.24818726 h 54.57439 V 15.063437 h -39.26277 v 11.205715 h 39.26277 z"
           style="font-family:'Red October';-inkscape-font-specification:'Red October'"
           id="path45710" />
        <path
           d="M -89.535683,68.183655 H -144.11008 V 52.95757 h 39.43385 V 41.324157 h -39.43385 V -0.24818726 h 54.574397 V 15.063437 h -39.262767 v 11.205715 h 39.262767 z"
           style="font-family:'Red October';-inkscape-font-specification:'Red October'"
           id="path45712" />
      </g>
      <g
         aria-label="HTML"
         id="text8553-7"
         style="font-size:85.5398px;line-height:1.25;stroke-width:2.1385">
        <path
           d="M 171.59101,0.3220022 V 68.753844 H 156.27939 V 35.051162 H 132.41378 V 68.753844 H 117.10216 V 0.3220022 h 15.31162 V 19.739537 h 23.86561 V 0.3220022 Z"
           style="font-family:'Red October';-inkscape-font-specification:'Red October'"
           id="path45715" />
        <path
           d="M 232.75184,15.548087 H 213.59092 V 68.668304 H 196.91066 V 15.548087 h -18.9043 V 0.2364624 h 54.74548 z"
           style="font-family:'Red October';-inkscape-font-specification:'Red October'"
           id="path45717" />
        <path
           d="m 239.68042,0.2364624 h 15.39716 l 18.81876,17.7922786 18.9043,-17.7922786 h 15.31162 V 68.668304 H 292.80064 V 20.937095 l -18.9043,19.075376 -18.81876,-19.075376 v 47.731209 h -15.39716 z"
           style="font-family:'Red October';-inkscape-font-specification:'Red October'"
           id="path45719" />
        <path
           d="M 365.76596,43.690682 V 68.753844 H 316.23842 V 0.3220022 h 15.31162 V 53.44222 h 18.98984 v -9.751538 z"
           style="font-family:'Red October';-inkscape-font-specification:'Red October'"
           id="path45721" />
      </g>
    </g>
  </g>
</svg>
